<?xml version="1.0" standalone="no"?>
<!DOCTYPE svg PUBLIC "-//W3C//DTD SVG 20010904//EN"
 "http://www.w3.org/TR/2001/REC-SVG-20010904/DTD/svg10.dtd">
<svg version="1.0" xmlns="http://www.w3.org/2000/svg"
 width="512.000000pt" height="512.000000pt" viewBox="0 0 512.000000 512.000000"
 preserveAspectRatio="xMidYMid meet">
<metadata>
Created by potrace 1.16, written by Peter Selinger 2001-2019
</metadata>
<g transform="translate(0.000000,512.000000) scale(0.100000,-0.100000)"
fill="#000000" stroke="none">
<path d="M1963 4370 c-52 -21 -124 -207 -124 -321 -1 -106 23 -163 96 -234 49
-49 76 -67 139 -90 l77 -30 -5 -37 c-8 -47 -39 -119 -78 -180 -38 -58 -58 -60
-99 -8 -22 27 -29 49 -34 100 -9 104 -67 141 -132 86 -26 -22 -28 -30 -28 -93
0 -78 30 -154 85 -217 37 -42 39 -39 -42 -81 -46 -24 -102 -32 -124 -17 -6 4
-26 38 -44 75 -40 82 -105 158 -168 194 -65 38 -184 44 -273 14 -90 -30 -198
-91 -217 -123 -14 -24 -15 -34 -4 -75 34 -132 134 -273 226 -318 105 -51 210
-44 353 25 64 32 93 40 136 40 29 0 56 -3 60 -6 3 -3 -10 -22 -30 -42 -48 -48
-101 -165 -121 -267 -15 -78 -15 -85 2 -110 37 -57 215 -111 335 -103 136 10
239 97 296 251 10 26 21 47 26 47 15 0 111 -116 144 -175 51 -91 55 -117 40
-247 -37 -311 -110 -782 -133 -848 -34 -99 -194 -398 -222 -415 -4 -3 -34 42
-65 100 -32 58 -68 116 -81 130 -50 54 -144 21 -144 -50 0 -20 25 -75 74 -161
l75 -129 -82 -7 c-45 -3 -196 -6 -335 -7 -141 -1 -261 -5 -271 -11 -10 -5 -24
-23 -31 -39 -15 -37 2 -79 40 -98 37 -19 2523 -19 2560 0 14 7 31 25 39 41 12
25 11 33 -3 62 -9 20 -25 35 -38 38 -13 3 -161 8 -331 12 l-308 6 96 92 c81
78 95 96 95 123 0 45 -36 84 -78 85 -36 1 -42 -4 -193 -150 l-86 -83 -35 78
c-20 43 -51 123 -69 178 l-34 100 1 425 c0 234 4 457 8 495 7 69 8 71 70 130
56 54 181 134 192 122 2 -2 -3 -33 -12 -68 -44 -173 36 -316 230 -409 102 -49
148 -58 181 -36 32 21 98 135 125 216 38 114 15 266 -49 324 -12 11 -21 23
-21 27 0 9 53 2 135 -18 93 -23 110 -35 125 -90 31 -115 105 -221 184 -268 97
-57 262 -48 401 22 94 47 100 64 67 189 -79 294 -267 389 -553 279 l-46 -18
-99 34 c-86 29 -106 40 -153 87 -29 29 -51 55 -48 58 3 3 22 1 44 -5 61 -17
156 -13 217 9 73 28 142 98 193 196 79 154 79 207 0 255 -152 94 -290 121
-398 78 -68 -26 -113 -66 -170 -149 -100 -146 -115 -291 -44 -431 l24 -48 -57
-5 c-93 -10 -252 -46 -329 -76 -92 -35 -204 -109 -270 -178 -29 -30 -53 -49
-53 -42 0 17 50 263 54 268 2 2 36 -7 76 -19 130 -39 254 -9 332 80 36 40 92
155 110 223 15 60 3 88 -53 124 -100 63 -239 96 -318 74 -23 -6 -45 -10 -47
-7 -6 5 27 170 36 180 4 5 22 1 40 -8 124 -64 258 -75 359 -30 67 30 149 109
194 185 35 61 77 174 77 209 0 38 -54 85 -153 135 -140 70 -268 83 -370 38
-52 -23 -141 -102 -163 -144 -8 -15 -21 -28 -28 -28 -8 0 -44 52 -81 115 -36
63 -76 122 -88 130 -29 20 -70 19 -98 -4 -40 -32 -31 -74 46 -207 37 -65 75
-132 83 -149 8 -16 22 -38 30 -47 11 -13 13 -31 8 -72 -10 -87 -10 -87 -70
-55 -97 53 -258 76 -304 44 -36 -26 -67 -143 -67 -255 0 -87 3 -100 30 -149
16 -29 47 -68 69 -87 40 -34 124 -71 184 -81 20 -4 32 -11 32 -21 0 -19 -80
-415 -85 -420 -2 -2 -14 25 -26 59 -45 123 -152 255 -297 368 -61 46 -199 123
-254 141 -21 6 -38 15 -37 18 0 4 29 31 65 60 117 97 198 234 234 397 10 50
28 108 39 130 62 128 76 277 34 368 -45 97 -162 180 -309 217 -86 22 -81 22
-111 10z m150 -198 c39 -18 75 -44 96 -68 31 -37 32 -42 29 -109 -3 -38 -12
-87 -21 -108 l-16 -37 -43 17 c-134 52 -183 133 -147 244 17 54 31 89 35 89 3
0 33 -13 67 -28z m1289 -314 c37 -17 68 -35 68 -40 0 -22 -64 -129 -97 -162
-44 -43 -90 -60 -153 -54 -53 5 -180 61 -180 79 0 23 62 127 94 158 70 68 146
73 268 19z m-749 -418 c62 -23 84 -43 97 -91 10 -34 4 -116 -10 -139 -12 -20
-109 13 -148 51 -30 29 -32 36 -32 99 0 110 4 113 93 80z m-1268 -60 c35 -13
84 -67 114 -124 24 -45 24 -47 5 -61 -31 -23 -104 -45 -151 -45 -69 0 -121 42
-170 137 l-21 43 31 17 c75 39 145 51 192 33z m2533 -45 c28 -13 52 -27 52
-30 0 -15 -43 -88 -72 -120 -45 -52 -82 -68 -137 -62 -52 6 -151 45 -151 59 0
19 49 105 76 132 61 61 128 68 232 21z m-770 -182 c48 -18 48 -26 6 -99 -32
-57 -68 -78 -129 -77 -54 2 -125 27 -125 44 0 23 54 109 79 126 50 35 86 36
169 6z m-1086 -203 c21 -6 40 -15 43 -19 7 -13 -31 -117 -55 -152 -12 -16 -34
-36 -50 -44 -34 -17 -128 -20 -184 -4 -36 10 -38 12 -32 42 11 57 60 141 95
165 38 25 117 30 183 12z m2214 -281 c27 -16 44 -39 64 -83 42 -93 42 -97 -10
-117 -52 -20 -141 -24 -173 -8 -52 27 -93 87 -117 171 -7 23 -4 28 18 37 88
35 161 35 218 0z m-835 -38 c24 -15 58 -43 74 -60 27 -29 30 -39 30 -94 0 -46
-8 -77 -27 -120 l-27 -58 -43 22 c-99 49 -139 98 -140 169 -1 68 41 170 70
170 10 0 38 -13 63 -29z"/>
</g>
</svg>
