<?xml version="1.0" standalone="no"?>
<!DOCTYPE svg PUBLIC "-//W3C//DTD SVG 20010904//EN"
 "http://www.w3.org/TR/2001/REC-SVG-20010904/DTD/svg10.dtd">
<svg version="1.0" xmlns="http://www.w3.org/2000/svg"
 width="512.000000pt" height="512.000000pt" viewBox="0 0 512.000000 512.000000"
 preserveAspectRatio="xMidYMid meet">
<metadata>
Created by potrace 1.16, written by Peter Selinger 2001-2019
</metadata>
<g transform="translate(0.000000,512.000000) scale(0.100000,-0.100000)"
fill="#000000" stroke="none">
<path d="M2176 4443 c-62 -51 -137 -147 -166 -214 -17 -40 -24 -73 -24 -125
-1 -97 38 -175 134 -270 l71 -70 -36 -71 c-21 -40 -60 -93 -90 -123 -47 -46
-56 -52 -70 -40 -33 28 -45 68 -44 147 1 72 0 78 -25 100 -58 49 -116 15 -136
-81 -14 -71 -2 -139 40 -213 17 -29 30 -55 30 -58 0 -2 -30 -14 -67 -25 -48
-14 -77 -18 -98 -12 -28 8 -30 11 -42 98 -25 171 -99 271 -234 314 -61 20 -83
22 -167 17 -116 -8 -165 -20 -193 -50 -20 -20 -21 -30 -16 -142 8 -195 59
-295 184 -357 65 -32 72 -33 178 -32 60 1 138 2 173 4 84 4 95 -9 42 -51 -77
-62 -179 -243 -166 -295 8 -29 95 -98 176 -139 195 -97 346 -60 476 116 20 27
39 49 42 49 11 -1 68 -82 96 -138 52 -102 60 -158 60 -387 0 -228 -10 -480
-30 -749 -10 -134 -78 -326 -167 -469 l-23 -38 -35 42 c-159 197 -180 216
-227 204 -43 -11 -62 -34 -62 -77 0 -40 31 -88 120 -188 62 -70 68 -66 -123
-73 -95 -4 -239 -7 -320 -7 -82 0 -156 -4 -166 -10 -10 -5 -24 -23 -31 -39
-15 -37 2 -79 40 -98 37 -19 2523 -19 2560 0 38 19 55 61 40 98 -7 16 -21 34
-31 39 -10 6 -105 11 -211 11 -106 1 -254 4 -330 8 l-136 6 84 105 c47 58 87
116 91 129 8 33 -21 89 -52 97 -44 11 -73 -4 -120 -64 -25 -31 -68 -85 -96
-120 l-51 -63 -33 55 c-44 74 -96 185 -129 275 -41 114 -44 132 -66 382 -5 64
-12 140 -15 170 -15 162 -25 319 -25 388 l0 79 45 50 c45 50 147 122 194 137
21 6 23 5 16 -11 -13 -33 -18 -168 -6 -210 32 -119 192 -242 351 -270 87 -15
103 -5 150 97 80 174 80 321 0 421 -18 22 -29 42 -25 46 7 7 144 -20 186 -36
20 -8 37 -33 67 -94 78 -161 185 -241 320 -240 80 0 166 26 256 76 90 50 103
71 87 142 -19 85 -78 192 -140 255 -115 116 -246 128 -442 38 l-66 -30 -85 24
c-47 14 -99 32 -115 41 -32 16 -117 106 -109 114 3 2 34 -1 69 -7 113 -20 209
9 284 86 82 82 160 284 137 350 -17 51 -214 133 -317 133 -20 0 -37 2 -37 5 0
2 7 20 17 39 22 48 7 80 -72 155 -122 113 -246 168 -358 158 -66 -6 -162 -49
-215 -96 -22 -20 -42 -29 -60 -27 -30 4 -27 -1 -88 131 -25 55 -55 110 -67
123 -26 27 -76 29 -108 3 -34 -27 -29 -72 18 -171 22 -47 59 -127 83 -178 l43
-92 -18 -63 c-10 -34 -20 -63 -21 -65 -1 -2 -23 11 -50 28 -72 45 -150 71
-235 77 -74 5 -76 5 -97 -22 -63 -80 -88 -294 -46 -385 39 -83 140 -158 248
-184 35 -8 36 -2 -36 -244 -49 -165 -53 -174 -61 -142 -26 103 -61 191 -104
263 -59 98 -198 243 -302 312 -41 28 -79 53 -83 56 -5 3 21 24 59 47 140 84
242 202 303 355 16 40 44 86 67 110 106 111 154 208 155 313 1 117 -88 250
-227 342 -63 42 -92 41 -149 -5z m137 -201 c77 -83 91 -128 62 -199 -17 -41
-81 -123 -96 -123 -19 0 -89 73 -109 115 -25 51 -25 88 -1 141 19 41 77 114
91 114 4 0 28 -22 53 -48z m987 -478 c52 -28 120 -85 120 -101 0 -5 -29 -38
-64 -72 -103 -99 -161 -112 -262 -61 -62 31 -124 83 -124 103 0 23 103 120
154 144 61 28 106 25 176 -13z m-1888 -139 c42 -31 70 -90 75 -160 l6 -62 -39
-6 c-54 -9 -140 6 -172 30 -37 27 -70 97 -78 167 l-7 59 94 -5 c74 -3 100 -8
121 -23z m1120 -182 c42 -8 105 -67 112 -105 6 -33 -6 -133 -17 -144 -13 -13
-110 30 -144 64 -35 35 -35 36 -31 107 5 81 13 99 37 90 9 -4 28 -9 43 -12z
m434 -28 c86 -57 158 -79 247 -72 53 3 67 2 63 -9 -13 -35 -29 -104 -35 -153
l-6 -54 -44 37 c-96 81 -225 124 -311 105 -23 -5 -45 -8 -47 -5 -7 7 49 196
58 196 5 0 39 -20 75 -45z m704 11 c78 -19 90 -26 90 -46 0 -35 -65 -144 -100
-168 -31 -21 -43 -23 -105 -19 -82 7 -135 25 -135 47 0 23 55 133 76 152 23
20 82 47 104 47 8 0 40 -6 70 -13z m-1735 -351 c79 -35 82 -43 35 -108 -22
-30 -55 -65 -74 -76 -56 -35 -136 -25 -219 26 l-38 24 22 39 c26 46 72 93 114
115 36 19 87 12 160 -20z m1071 13 c86 -49 81 -41 51 -85 -44 -64 -83 -87
-146 -87 -34 0 -56 4 -59 12 -2 7 -9 12 -15 12 -7 0 -25 11 -41 24 l-30 23 34
43 c65 82 130 100 206 58z m-237 -297 l54 -28 -60 -47 c-33 -26 -75 -65 -93
-87 -17 -22 -34 -38 -36 -36 -9 8 59 227 70 227 6 -1 35 -13 65 -29z m1351
-30 c27 -19 93 -113 104 -147 6 -18 -2 -25 -53 -48 -72 -32 -142 -35 -188 -6
-32 19 -96 106 -108 147 -5 18 1 26 35 43 79 40 161 45 210 11z m-832 -87 c98
-48 136 -120 114 -213 -26 -114 -34 -118 -130 -70 -83 41 -117 95 -109 172 7
70 35 137 56 137 9 0 40 -12 69 -26z m-718 -283 c0 -8 -6 -11 -15 -7 -11 4
-15 -2 -15 -24 0 -33 11 -38 34 -14 15 14 16 9 15 -53 -1 -37 -3 -60 -6 -50
-10 36 -23 15 -23 -38 l0 -55 -35 0 c-31 0 -35 -3 -35 -27 0 -20 -3 -24 -9
-15 -5 8 -9 50 -10 95 l-2 81 20 -23 c18 -21 22 -22 36 -8 21 21 19 27 -9 27
-20 0 -24 4 -21 27 1 15 -2 37 -7 49 -18 38 -4 55 42 52 26 -2 40 -8 40 -17z
m160 -1064 c0 -10 -5 -28 -11 -40 -11 -21 -11 -21 7 -5 19 16 20 16 31 -1 6
-10 9 -37 6 -63 -4 -36 -2 -46 12 -52 9 -3 22 -3 28 1 7 4 8 0 4 -11 -5 -13
-1 -19 13 -23 22 -6 22 -5 26 -53 2 -27 0 -31 -7 -17 -11 19 -39 23 -39 6 0
-5 -5 -7 -12 -3 -9 6 -9 9 -1 11 7 3 9 11 6 20 -5 13 -3 13 15 4 15 -8 23 -8
27 0 4 6 -2 13 -14 16 -12 3 -21 9 -21 14 0 5 -13 7 -29 5 -30 -3 -62 22 -69
55 -2 7 -9 17 -15 21 -7 4 -8 8 -3 8 5 0 2 8 -7 18 -10 10 -14 22 -10 25 3 4
1 7 -4 7 -12 0 -29 77 -19 87 8 8 36 -23 36 -41 0 -27 18 -18 19 9 1 14 2 37
2 53 l2 27 13 -30 c7 -16 13 -38 14 -48z"/>
</g>
</svg>
