<?xml version="1.0" standalone="no"?>
<!DOCTYPE svg PUBLIC "-//W3C//DTD SVG 20010904//EN"
 "http://www.w3.org/TR/2001/REC-SVG-20010904/DTD/svg10.dtd">
<svg version="1.0" xmlns="http://www.w3.org/2000/svg"
 width="512.000000pt" height="512.000000pt" viewBox="0 0 512.000000 512.000000"
 preserveAspectRatio="xMidYMid meet">
<metadata>
Created by potrace 1.16, written by Peter Selinger 2001-2019
</metadata>
<g transform="translate(0.000000,512.000000) scale(0.100000,-0.100000)"
fill="#000000" stroke="none">
<path d="M933 4440 c-57 -12 -96 -33 -128 -72 -57 -68 -58 -76 -51 -398 11
-541 17 -705 27 -756 13 -67 57 -127 117 -156 46 -22 53 -23 282 -20 263 3
311 11 374 63 40 34 75 97 76 137 0 41 16 23 55 -60 115 -250 157 -330 212
-403 110 -146 404 -405 518 -456 22 -10 59 -19 82 -19 41 0 42 -1 49 -37 15
-82 56 -158 157 -291 48 -63 83 -84 142 -84 49 0 68 9 145 66 30 23 62 46 72
51 39 23 121 112 143 155 90 180 38 400 -118 503 -109 71 -262 75 -356 8 l-28
-20 -39 42 c-22 23 -72 70 -111 105 -81 72 -97 103 -98 184 0 67 21 101 79
131 l39 20 156 -27 c86 -16 178 -37 204 -48 63 -27 111 -84 178 -209 114 -215
216 -279 376 -234 29 8 78 22 108 30 81 23 134 68 174 147 30 60 34 76 33 145
-1 90 -22 178 -85 354 -73 204 -123 287 -252 414 -135 134 -436 302 -685 383
-319 103 -537 152 -929 208 l-264 37 -39 43 c-67 72 -75 74 -340 73 -128 -1
-252 -5 -275 -9z m486 -167 c21 -17 22 -29 31 -293 23 -727 23 -727 1 -749
-23 -23 -22 -23 -299 -22 -90 0 -172 3 -183 6 -10 4 -21 16 -24 28 -3 12 -7
135 -9 273 -1 137 -5 255 -9 261 -4 5 -7 113 -7 238 -1 196 1 230 15 244 12
13 46 17 158 22 283 11 303 10 326 -8z m1541 -1723 c20 -5 50 -24 67 -42 89
-92 83 -255 -12 -336 -69 -59 -156 -122 -169 -122 -9 0 -111 148 -127 185 -49
107 1 250 106 304 44 23 81 26 135 11z"/>
<path d="M1862 2214 c-63 -17 -102 -36 -162 -79 -35 -26 -49 -31 -63 -24 -9 6
-45 15 -80 20 -98 16 -221 -15 -283 -72 -19 -18 -26 -18 -74 -8 -71 15 -171 7
-242 -21 -70 -26 -154 -100 -190 -167 -45 -82 -49 -141 -46 -635 l3 -457 23
-23 23 -23 1789 0 1789 0 23 23 23 23 3 487 c3 510 -1 580 -39 655 -12 22 -43
62 -70 89 -125 125 -311 143 -458 44 l-48 -33 -74 30 c-62 25 -89 30 -164 31
-104 1 -161 -20 -226 -85 -64 -64 -81 -109 -90 -241 -9 -126 -20 -182 -50
-240 -30 -58 -118 -141 -184 -174 -56 -27 -68 -29 -175 -29 -103 0 -121 3
-170 26 -69 32 -161 124 -195 193 -30 62 -44 146 -45 266 0 133 -36 222 -123
312 -107 110 -271 154 -425 112z m434 -770 c-3 -8 0 -14 7 -14 7 0 27 -23 46
-51 102 -151 288 -249 471 -249 86 0 207 31 277 71 68 39 160 124 193 178 26
43 36 49 85 52 30 2 50 -3 92 -23 12 -6 33 -8 47 -4 20 5 24 3 20 -9 -4 -10 0
-15 10 -15 9 0 16 -4 16 -9 0 -8 42 -29 120 -58 42 -15 43 -15 35 -3 -3 6 1
10 9 10 9 0 16 -5 16 -11 0 -19 207 -6 260 16 42 18 43 20 20 26 -23 6 -22 7
8 8 17 1 32 6 32 11 0 6 8 10 19 10 10 0 21 9 24 20 3 11 10 20 17 20 6 0 8
-4 5 -10 -3 -5 3 -10 14 -10 14 0 19 5 14 15 -4 13 2 15 36 13 l41 -3 0 -267
0 -268 -1195 0 c-843 0 -1195 3 -1195 11 0 16 -26 39 -44 39 -9 0 -16 8 -16
19 0 11 -4 23 -10 26 -5 3 -10 18 -10 33 0 21 -2 24 -10 12 -5 -8 -10 -10 -11
-5 -1 6 -3 23 -5 40 -2 16 -13 36 -24 45 -14 10 -19 22 -14 33 3 10 1 17 -5
17 -6 0 -11 8 -11 19 0 10 -7 24 -15 31 -8 7 -15 19 -15 26 0 8 -4 14 -8 14
-5 0 -16 16 -25 36 -10 19 -12 32 -6 28 41 -25 281 -22 350 5 15 5 30 7 33 4
3 -4 6 -1 6 5 0 6 9 14 20 17 11 4 18 10 15 15 -3 5 1 11 7 13 10 4 10 8 -1
15 -21 15 5 25 45 18 21 -4 34 -3 34 4 0 5 18 10 40 10 22 0 40 4 40 9 0 4 18
7 40 6 25 -1 37 1 33 8 -4 6 -1 7 7 2 10 -6 12 -4 7 9 -4 11 -3 15 4 11 6 -4
8 -13 5 -21z"/>
</g>
</svg>
