<?xml version="1.0" standalone="no"?>
<!DOCTYPE svg PUBLIC "-//W3C//DTD SVG 20010904//EN"
 "http://www.w3.org/TR/2001/REC-SVG-20010904/DTD/svg10.dtd">
<svg version="1.0" xmlns="http://www.w3.org/2000/svg"
 width="512.000000pt" height="512.000000pt" viewBox="0 0 512.000000 512.000000"
 preserveAspectRatio="xMidYMid meet">
<metadata>
Created by potrace 1.16, written by Peter Selinger 2001-2019
</metadata>
<g transform="translate(0.000000,512.000000) scale(0.100000,-0.100000)"
fill="#000000" stroke="none">
<path d="M3110 4331 c-30 -9 -69 -26 -85 -36 -17 -10 -109 -97 -207 -193
l-176 -175 -40 31 c-21 17 -63 44 -93 59 -106 53 -271 40 -363 -30 -31 -24
-35 -24 -166 -20 -144 6 -204 -4 -320 -50 -114 -44 -219 -121 -298 -216 -58
-70 -125 -199 -147 -286 -22 -82 -30 -228 -16 -298 10 -56 9 -61 -14 -91 -99
-130 -96 -310 8 -447 42 -57 212 -267 385 -478 51 -62 91 -115 88 -118 -5 -5
-394 -123 -406 -123 -4 0 -43 35 -86 78 -127 125 -216 151 -325 94 -73 -38
-108 -91 -121 -184 -5 -39 -8 -218 -6 -402 3 -276 6 -337 19 -366 60 -133 196
-181 319 -115 60 33 160 127 185 174 l16 31 537 0 537 0 103 -129 c181 -227
246 -271 397 -271 138 0 160 14 398 249 355 351 1075 1075 1096 1102 42 54 65
129 64 214 -1 134 -42 202 -200 331 -60 48 -113 92 -120 98 -10 9 -7 26 12 78
45 124 58 217 52 377 -7 228 -57 385 -179 567 -52 78 -401 437 -482 496 -88
64 -252 86 -366 49z m246 -173 c27 -12 112 -91 245 -226 221 -224 274 -296
326 -444 28 -82 53 -218 53 -293 0 -46 -42 -280 -52 -290 -2 -2 -26 14 -53 35
-28 22 -64 50 -81 62 l-31 22 1 140 c1 134 -1 146 -31 236 -48 141 -92 206
-242 361 -233 240 -263 240 -508 1 -60 -59 -50 -59 -124 3 -20 16 -46 37 -57
46 -21 15 -17 19 141 182 89 92 167 167 172 167 6 1 33 7 60 15 59 16 123 10
181 -17z m-900 -294 c16 -10 58 -43 94 -72 36 -30 74 -61 85 -70 11 -9 45 -37
75 -62 30 -25 91 -75 135 -111 44 -36 127 -103 183 -150 57 -46 121 -97 143
-114 35 -27 226 -183 558 -453 69 -57 202 -164 295 -239 131 -106 172 -145
187 -177 24 -54 24 -127 0 -174 -29 -56 -1257 -1278 -1303 -1297 -71 -29 -155
-12 -205 42 -28 29 -159 186 -266 318 -18 22 -81 100 -140 173 -60 74 -188
231 -285 350 -318 392 -386 476 -437 541 -28 35 -68 85 -91 110 -71 80 -173
210 -187 238 -23 45 -28 91 -16 141 11 44 44 79 483 521 308 309 485 480 511
493 49 23 138 19 181 -8z m-558 -101 c-24 -27 -155 -158 -291 -293 -244 -242
-247 -245 -247 -210 0 55 27 147 67 230 41 84 140 191 208 225 22 11 41 23 43
27 5 12 129 47 197 57 33 5 62 9 64 10 2 0 -16 -20 -41 -46z m1478 -120 c133
-138 179 -210 209 -328 16 -62 20 -155 8 -155 -5 0 -92 69 -195 153 -102 83
-220 179 -262 212 -41 33 -74 63 -73 67 4 14 170 178 180 178 5 0 65 -57 133
-127z m-2378 -1767 c178 -112 241 -383 138 -592 -44 -89 -140 -184 -186 -184
-59 0 -60 8 -60 396 0 340 1 352 21 378 25 32 39 33 87 2z m858 -132 c25 -32
146 -182 223 -277 24 -30 73 -90 90 -109 13 -17 -7 -18 -407 -18 l-420 0 10
38 c10 36 5 232 -8 298 -5 29 -4 31 38 41 67 18 277 81 338 102 l55 20 25 -28
c14 -15 39 -45 56 -67z"/>
<path d="M2717 3030 c-58 -15 -96 -38 -153 -92 -41 -38 -59 -66 -79 -119 -26
-67 -28 -69 -74 -83 -111 -33 -188 -93 -231 -181 -21 -42 -25 -65 -25 -140 0
-117 28 -180 118 -259 l61 -55 1 -78 c2 -133 67 -240 182 -299 51 -26 68 -29
148 -29 95 0 135 14 210 71 l31 23 64 -21 c173 -55 333 4 415 153 37 68 46
176 21 258 l-16 54 45 66 c54 79 79 164 69 236 -22 167 -144 279 -318 292
l-77 6 -40 58 c-65 91 -144 137 -252 144 -34 2 -79 0 -100 -5z m160 -179 c17
-11 54 -53 82 -94 27 -41 58 -78 68 -81 10 -4 62 -11 116 -15 113 -9 140 -23
175 -91 38 -75 28 -114 -53 -220 -23 -30 -45 -63 -49 -74 -3 -10 6 -61 21
-112 31 -108 26 -145 -28 -202 -58 -62 -104 -66 -231 -21 -99 36 -73 41 -210
-45 -74 -47 -123 -51 -186 -16 -65 37 -84 85 -80 206 l3 97 -45 36 c-24 20
-66 57 -92 82 -46 44 -48 48 -48 103 0 102 35 140 160 177 44 12 88 30 98 40
10 9 31 52 47 95 31 87 54 120 100 140 44 20 115 17 152 -5z"/>
</g>
</svg>
